<mxfile host="app.diagrams.net" modified="2023-08-26T18:28:46.665Z" agent="Mozilla/5.0 (Windows NT 10.0; Win64; x64) AppleWebKit/537.36 (KHTML, like Gecko) Chrome/115.0.0.0 Safari/537.36" etag="CKV0sBRBbQNoe787e6Na" version="21.6.9" type="device">
  <diagram name="Page-1" id="YXKL2KkAqIA9wchHLEqY">
    <mxGraphModel dx="2104" dy="1190" grid="1" gridSize="10" guides="1" tooltips="1" connect="1" arrows="1" fold="1" page="1" pageScale="1" pageWidth="850" pageHeight="1100" math="0" shadow="0">
      <root>
        <mxCell id="0" />
        <mxCell id="1" parent="0" />
        <mxCell id="RVd_xaVwIh7xW1SnCFle-36" value="&lt;font style=&quot;font-size: 29px;&quot;&gt;&lt;b&gt;CPU&amp;nbsp; &amp;nbsp; &amp;nbsp;&lt;/b&gt;&lt;/font&gt;" style="rounded=1;whiteSpace=wrap;html=1;fillColor=#e6d0de;strokeColor=#996185;align=right;gradientColor=none;" parent="1" vertex="1">
          <mxGeometry x="920" y="790" width="820" height="100" as="geometry" />
        </mxCell>
        <mxCell id="RVd_xaVwIh7xW1SnCFle-2" value="&lt;font style=&quot;font-size: 20px;&quot;&gt;Core&lt;/font&gt;" style="rounded=1;whiteSpace=wrap;html=1;fillColor=#e6d0de;strokeColor=#996185;strokeWidth=3;gradientColor=#d5739d;" parent="1" vertex="1">
          <mxGeometry x="945" y="810" width="150" height="60" as="geometry" />
        </mxCell>
        <mxCell id="RVd_xaVwIh7xW1SnCFle-3" value="&lt;font style=&quot;font-size: 20px;&quot;&gt;Core&lt;/font&gt;" style="rounded=1;whiteSpace=wrap;html=1;fillColor=#e6d0de;strokeColor=#996185;strokeWidth=3;gradientColor=#d5739d;" parent="1" vertex="1">
          <mxGeometry x="1115" y="810" width="150" height="60" as="geometry" />
        </mxCell>
        <mxCell id="RVd_xaVwIh7xW1SnCFle-4" value="&lt;font style=&quot;font-size: 20px;&quot;&gt;Core&lt;/font&gt;" style="rounded=1;whiteSpace=wrap;html=1;fillColor=#e6d0de;strokeColor=#996185;strokeWidth=3;gradientColor=#d5739d;" parent="1" vertex="1">
          <mxGeometry x="1285" y="810" width="150" height="60" as="geometry" />
        </mxCell>
        <mxCell id="RVd_xaVwIh7xW1SnCFle-5" value="&lt;font style=&quot;font-size: 20px;&quot;&gt;Core&lt;/font&gt;" style="rounded=1;whiteSpace=wrap;html=1;fillColor=#e6d0de;strokeColor=#996185;strokeWidth=3;gradientColor=#d5739d;" parent="1" vertex="1">
          <mxGeometry x="1455" y="810" width="150" height="60" as="geometry" />
        </mxCell>
        <mxCell id="RVd_xaVwIh7xW1SnCFle-8" value="" style="shape=flexArrow;endArrow=classic;html=1;rounded=0;exitX=0.5;exitY=0;exitDx=0;exitDy=0;strokeColor=#36393d;fillColor=#f9f7ed;" parent="1" source="RVd_xaVwIh7xW1SnCFle-2" target="RVd_xaVwIh7xW1SnCFle-18" edge="1">
          <mxGeometry width="50" height="50" relative="1" as="geometry">
            <mxPoint x="1240" y="320" as="sourcePoint" />
            <mxPoint x="1050" y="600" as="targetPoint" />
          </mxGeometry>
        </mxCell>
        <mxCell id="RVd_xaVwIh7xW1SnCFle-9" value="" style="shape=flexArrow;endArrow=classic;html=1;rounded=0;exitX=0.5;exitY=0;exitDx=0;exitDy=0;strokeColor=#36393d;fillColor=#f9f7ed;" parent="1" source="RVd_xaVwIh7xW1SnCFle-3" target="RVd_xaVwIh7xW1SnCFle-19" edge="1">
          <mxGeometry width="50" height="50" relative="1" as="geometry">
            <mxPoint x="1189.5" y="670" as="sourcePoint" />
            <mxPoint x="1260" y="610" as="targetPoint" />
          </mxGeometry>
        </mxCell>
        <mxCell id="RVd_xaVwIh7xW1SnCFle-10" value="" style="shape=flexArrow;endArrow=classic;html=1;rounded=0;exitX=0.5;exitY=0;exitDx=0;exitDy=0;strokeColor=#36393d;fillColor=#f9f7ed;" parent="1" source="RVd_xaVwIh7xW1SnCFle-4" target="RVd_xaVwIh7xW1SnCFle-22" edge="1">
          <mxGeometry width="50" height="50" relative="1" as="geometry">
            <mxPoint x="1200" y="680" as="sourcePoint" />
            <mxPoint x="1400" y="580" as="targetPoint" />
          </mxGeometry>
        </mxCell>
        <mxCell id="RVd_xaVwIh7xW1SnCFle-11" value="" style="shape=flexArrow;endArrow=classic;html=1;rounded=0;exitX=0.5;exitY=0;exitDx=0;exitDy=0;strokeColor=#36393d;fillColor=#f9f7ed;" parent="1" source="RVd_xaVwIh7xW1SnCFle-5" target="RVd_xaVwIh7xW1SnCFle-23" edge="1">
          <mxGeometry width="50" height="50" relative="1" as="geometry">
            <mxPoint x="1370" y="680" as="sourcePoint" />
            <mxPoint x="1530" y="560" as="targetPoint" />
          </mxGeometry>
        </mxCell>
        <mxCell id="RVd_xaVwIh7xW1SnCFle-18" value="&lt;font style=&quot;font-size: 20px;&quot;&gt;Thread&lt;/font&gt;" style="strokeWidth=2;html=1;shape=mxgraph.flowchart.document2;whiteSpace=wrap;size=0.25;fillColor=#fff2cc;strokeColor=#d6b656;gradientColor=#ffd966;" parent="1" vertex="1">
          <mxGeometry x="960" y="580" width="120" height="60" as="geometry" />
        </mxCell>
        <mxCell id="RVd_xaVwIh7xW1SnCFle-19" value="&lt;font style=&quot;font-size: 20px;&quot;&gt;Thread&lt;/font&gt;" style="strokeWidth=2;html=1;shape=mxgraph.flowchart.document2;whiteSpace=wrap;size=0.25;fillColor=#fff2cc;strokeColor=#d6b656;gradientColor=#ffd966;" parent="1" vertex="1">
          <mxGeometry x="1130" y="580" width="120" height="60" as="geometry" />
        </mxCell>
        <mxCell id="RVd_xaVwIh7xW1SnCFle-22" value="&lt;font style=&quot;font-size: 20px;&quot;&gt;Thread&lt;/font&gt;" style="strokeWidth=2;html=1;shape=mxgraph.flowchart.document2;whiteSpace=wrap;size=0.25;fillColor=#fff2cc;strokeColor=#d6b656;gradientColor=#ffd966;" parent="1" vertex="1">
          <mxGeometry x="1300" y="580" width="120" height="60" as="geometry" />
        </mxCell>
        <mxCell id="RVd_xaVwIh7xW1SnCFle-23" value="&lt;font style=&quot;font-size: 20px;&quot;&gt;Thread&lt;/font&gt;" style="strokeWidth=2;html=1;shape=mxgraph.flowchart.document2;whiteSpace=wrap;size=0.25;fillColor=#fff2cc;strokeColor=#d6b656;gradientColor=#ffd966;" parent="1" vertex="1">
          <mxGeometry x="1470" y="580" width="120" height="60" as="geometry" />
        </mxCell>
        <mxCell id="RVd_xaVwIh7xW1SnCFle-24" value="Thread" style="strokeWidth=2;html=1;shape=mxgraph.flowchart.document2;whiteSpace=wrap;size=0.25;fillColor=#f5f5f5;strokeColor=#666666;gradientColor=#b3b3b3;" parent="1" vertex="1">
          <mxGeometry x="2055" y="557.5" width="120" height="60" as="geometry" />
        </mxCell>
        <mxCell id="RVd_xaVwIh7xW1SnCFle-30" value="&lt;font style=&quot;font-size: 20px;&quot;&gt;Scheduler&lt;/font&gt;" style="shape=parallelogram;perimeter=parallelogramPerimeter;whiteSpace=wrap;html=1;fixedSize=1;fillColor=#fff2cc;strokeColor=#d6b656;strokeWidth=2;gradientColor=#ffd966;" parent="1" vertex="1">
          <mxGeometry x="1750" y="570" width="140" height="80" as="geometry" />
        </mxCell>
        <mxCell id="qyvfUixPplAcUaG2uUXr-1" value="" style="html=1;shadow=0;dashed=0;align=center;verticalAlign=middle;shape=mxgraph.arrows2.arrow;dy=0.6;dx=40;flipH=1;notch=0;fillColor=#fff2cc;strokeColor=#d6b656;gradientColor=#ffd966;" parent="1" vertex="1">
          <mxGeometry x="1620" y="587.5" width="100" height="45" as="geometry" />
        </mxCell>
        <mxCell id="qyvfUixPplAcUaG2uUXr-4" value="" style="endArrow=none;dashed=1;html=1;dashPattern=1 3;strokeWidth=2;rounded=0;fillColor=#d5e8d4;strokeColor=#3C77CF;" parent="1" edge="1">
          <mxGeometry width="50" height="50" relative="1" as="geometry">
            <mxPoint x="910" y="450" as="sourcePoint" />
            <mxPoint x="2260" y="450" as="targetPoint" />
          </mxGeometry>
        </mxCell>
        <mxCell id="qyvfUixPplAcUaG2uUXr-6" value="&lt;p style=&quot;line-height: 130%;&quot;&gt;&lt;font color=&quot;#37a68f&quot; style=&quot;font-size: 37px;&quot;&gt;Operating System&lt;/font&gt;&lt;/p&gt;" style="whiteSpace=wrap;html=1;strokeColor=none;fillColor=none;fontColor=#ffffff;" parent="1" vertex="1">
          <mxGeometry x="1740" y="470" width="360" height="60" as="geometry" />
        </mxCell>
        <mxCell id="qyvfUixPplAcUaG2uUXr-10" value="&lt;p style=&quot;line-height: 130%;&quot;&gt;&lt;font color=&quot;#37a68f&quot;&gt;&lt;span style=&quot;font-size: 37px;&quot;&gt;Hardware&lt;/span&gt;&lt;/font&gt;&lt;/p&gt;" style="whiteSpace=wrap;html=1;strokeColor=none;fillColor=none;fontColor=#ffffff;" parent="1" vertex="1">
          <mxGeometry x="1740" y="760" width="360" height="60" as="geometry" />
        </mxCell>
        <mxCell id="qyvfUixPplAcUaG2uUXr-12" value="" style="shape=flexArrow;endArrow=classic;html=1;rounded=0;exitX=0.5;exitY=0;exitDx=0;exitDy=0;strokeColor=#36393d;exitPerimeter=0;entryX=0.5;entryY=1;entryDx=0;entryDy=0;entryPerimeter=0;fillColor=#f9f7ed;" parent="1" source="RVd_xaVwIh7xW1SnCFle-18" target="qyvfUixPplAcUaG2uUXr-56" edge="1">
          <mxGeometry width="50" height="50" relative="1" as="geometry">
            <mxPoint x="1030" y="435" as="sourcePoint" />
            <mxPoint x="1020" y="370" as="targetPoint" />
          </mxGeometry>
        </mxCell>
        <mxCell id="qyvfUixPplAcUaG2uUXr-13" value="" style="shape=flexArrow;endArrow=classic;html=1;rounded=0;exitX=0.5;exitY=0;exitDx=0;exitDy=0;strokeColor=#36393d;exitPerimeter=0;entryX=0.5;entryY=1;entryDx=0;entryDy=0;fillColor=#f9f7ed;" parent="1" source="RVd_xaVwIh7xW1SnCFle-19" target="qyvfUixPplAcUaG2uUXr-21" edge="1">
          <mxGeometry width="50" height="50" relative="1" as="geometry">
            <mxPoint x="1210" y="470" as="sourcePoint" />
            <mxPoint x="1190" y="250" as="targetPoint" />
          </mxGeometry>
        </mxCell>
        <mxCell id="qyvfUixPplAcUaG2uUXr-14" value="" style="shape=flexArrow;endArrow=classic;html=1;rounded=0;strokeColor=#36393d;entryX=0.5;entryY=1;entryDx=0;entryDy=0;fillColor=#f9f7ed;" parent="1" source="RVd_xaVwIh7xW1SnCFle-22" target="qyvfUixPplAcUaG2uUXr-22" edge="1">
          <mxGeometry width="50" height="50" relative="1" as="geometry">
            <mxPoint x="1350" y="440" as="sourcePoint" />
            <mxPoint x="1360" y="260" as="targetPoint" />
          </mxGeometry>
        </mxCell>
        <mxCell id="qyvfUixPplAcUaG2uUXr-15" value="" style="shape=flexArrow;endArrow=classic;html=1;rounded=0;strokeColor=#36393d;exitX=0.5;exitY=0;exitDx=0;exitDy=0;exitPerimeter=0;entryX=0.5;entryY=1;entryDx=0;entryDy=0;fillColor=#f9f7ed;" parent="1" source="RVd_xaVwIh7xW1SnCFle-23" target="qyvfUixPplAcUaG2uUXr-23" edge="1">
          <mxGeometry width="50" height="50" relative="1" as="geometry">
            <mxPoint x="1469" y="420" as="sourcePoint" />
            <mxPoint x="1530" y="260" as="targetPoint" />
          </mxGeometry>
        </mxCell>
        <mxCell id="qyvfUixPplAcUaG2uUXr-17" value="Thread" style="strokeWidth=2;html=1;shape=mxgraph.flowchart.document2;whiteSpace=wrap;size=0.25;fillColor=#f5f5f5;strokeColor=#666666;gradientColor=#b3b3b3;" parent="1" vertex="1">
          <mxGeometry x="2075" y="567.5" width="120" height="60" as="geometry" />
        </mxCell>
        <mxCell id="qyvfUixPplAcUaG2uUXr-18" value="Thread" style="strokeWidth=2;html=1;shape=mxgraph.flowchart.document2;whiteSpace=wrap;size=0.25;fillColor=#f5f5f5;strokeColor=#666666;gradientColor=#b3b3b3;" parent="1" vertex="1">
          <mxGeometry x="2095" y="577.5" width="120" height="60" as="geometry" />
        </mxCell>
        <mxCell id="qyvfUixPplAcUaG2uUXr-19" value="Thread" style="strokeWidth=2;html=1;shape=mxgraph.flowchart.document2;whiteSpace=wrap;size=0.25;fillColor=#f5f5f5;strokeColor=#666666;gradientColor=#b3b3b3;" parent="1" vertex="1">
          <mxGeometry x="2115" y="587.5" width="120" height="60" as="geometry" />
        </mxCell>
        <mxCell id="qyvfUixPplAcUaG2uUXr-20" value="&lt;font style=&quot;font-size: 20px;&quot;&gt;Thread&lt;/font&gt;" style="strokeWidth=2;html=1;shape=mxgraph.flowchart.document2;whiteSpace=wrap;size=0.25;fillColor=#f5f5f5;strokeColor=#666666;gradientColor=#b3b3b3;" parent="1" vertex="1">
          <mxGeometry x="2135" y="602.5" width="120" height="60" as="geometry" />
        </mxCell>
        <mxCell id="qyvfUixPplAcUaG2uUXr-21" value="&lt;font style=&quot;font-size: 20px;&quot;&gt;Fiber&lt;/font&gt;" style="shape=parallelogram;perimeter=parallelogramPerimeter;whiteSpace=wrap;html=1;fixedSize=1;fillColor=#d5e8d4;gradientColor=#97d077;strokeColor=#82b366;strokeWidth=2;" parent="1" vertex="1">
          <mxGeometry x="1130" y="310" width="120" height="60" as="geometry" />
        </mxCell>
        <mxCell id="qyvfUixPplAcUaG2uUXr-22" value="&lt;font style=&quot;font-size: 20px;&quot;&gt;Fiber&lt;/font&gt;" style="shape=parallelogram;perimeter=parallelogramPerimeter;whiteSpace=wrap;html=1;fixedSize=1;fillColor=#d5e8d4;gradientColor=#97d077;strokeColor=#82b366;strokeWidth=2;" parent="1" vertex="1">
          <mxGeometry x="1300" y="310" width="120" height="60" as="geometry" />
        </mxCell>
        <mxCell id="qyvfUixPplAcUaG2uUXr-23" value="&lt;font style=&quot;font-size: 20px;&quot;&gt;Fiber&lt;/font&gt;" style="shape=parallelogram;perimeter=parallelogramPerimeter;whiteSpace=wrap;html=1;fixedSize=1;fillColor=#d5e8d4;gradientColor=#97d077;strokeColor=#82b366;strokeWidth=2;" parent="1" vertex="1">
          <mxGeometry x="1470" y="310" width="120" height="60" as="geometry" />
        </mxCell>
        <mxCell id="qyvfUixPplAcUaG2uUXr-24" value="" style="html=1;shadow=0;dashed=0;align=center;verticalAlign=middle;shape=mxgraph.arrows2.arrow;dy=0.6;dx=40;flipH=1;notch=0;fillColor=#fff2cc;strokeColor=#d6b656;gradientColor=#ffd966;" parent="1" vertex="1">
          <mxGeometry x="1925" y="585" width="100" height="45" as="geometry" />
        </mxCell>
        <mxCell id="qyvfUixPplAcUaG2uUXr-25" value="" style="endArrow=none;dashed=1;html=1;dashPattern=1 3;strokeWidth=2;rounded=0;fillColor=#d5e8d4;strokeColor=#3C77CF;" parent="1" edge="1">
          <mxGeometry width="50" height="50" relative="1" as="geometry">
            <mxPoint x="910" y="730" as="sourcePoint" />
            <mxPoint x="2260" y="730" as="targetPoint" />
          </mxGeometry>
        </mxCell>
        <mxCell id="qyvfUixPplAcUaG2uUXr-26" value="" style="endArrow=none;dashed=1;html=1;dashPattern=1 3;strokeWidth=2;rounded=0;fillColor=#d5e8d4;strokeColor=#3C77CF;" parent="1" edge="1">
          <mxGeometry width="50" height="50" relative="1" as="geometry">
            <mxPoint x="910" y="120" as="sourcePoint" />
            <mxPoint x="2260" y="120" as="targetPoint" />
          </mxGeometry>
        </mxCell>
        <mxCell id="qyvfUixPplAcUaG2uUXr-27" value="&lt;p style=&quot;line-height: 130%;&quot;&gt;&lt;font color=&quot;#37a68f&quot; style=&quot;font-size: 37px;&quot;&gt;Application Software&lt;/font&gt;&lt;/p&gt;" style="whiteSpace=wrap;html=1;strokeColor=none;fillColor=none;fontColor=#ffffff;" parent="1" vertex="1">
          <mxGeometry x="1740" y="140" width="360" height="60" as="geometry" />
        </mxCell>
        <mxCell id="qyvfUixPplAcUaG2uUXr-28" value="Fiber" style="shape=parallelogram;perimeter=parallelogramPerimeter;whiteSpace=wrap;html=1;fixedSize=1;fillColor=#f5f5f5;gradientColor=#b3b3b3;strokeColor=#666666;strokeWidth=2;" parent="1" vertex="1">
          <mxGeometry x="2035" y="240" width="120" height="60" as="geometry" />
        </mxCell>
        <mxCell id="qyvfUixPplAcUaG2uUXr-40" value="&lt;font style=&quot;font-size: 20px;&quot;&gt;Application&#39;s own scheduler&lt;/font&gt;" style="shape=parallelogram;perimeter=parallelogramPerimeter;whiteSpace=wrap;html=1;fixedSize=1;fillColor=#d5e8d4;strokeColor=#82b366;strokeWidth=2;gradientColor=#97d077;" parent="1" vertex="1">
          <mxGeometry x="1735" y="300" width="190" height="80" as="geometry" />
        </mxCell>
        <mxCell id="qyvfUixPplAcUaG2uUXr-41" value="Fiber" style="shape=parallelogram;perimeter=parallelogramPerimeter;whiteSpace=wrap;html=1;fixedSize=1;fillColor=#f5f5f5;gradientColor=#b3b3b3;strokeColor=#666666;strokeWidth=2;" parent="1" vertex="1">
          <mxGeometry x="2045" y="250" width="120" height="60" as="geometry" />
        </mxCell>
        <mxCell id="qyvfUixPplAcUaG2uUXr-42" value="Fiber" style="shape=parallelogram;perimeter=parallelogramPerimeter;whiteSpace=wrap;html=1;fixedSize=1;fillColor=#f5f5f5;gradientColor=#b3b3b3;strokeColor=#666666;strokeWidth=2;" parent="1" vertex="1">
          <mxGeometry x="2055" y="260" width="120" height="60" as="geometry" />
        </mxCell>
        <mxCell id="qyvfUixPplAcUaG2uUXr-43" value="Fiber" style="shape=parallelogram;perimeter=parallelogramPerimeter;whiteSpace=wrap;html=1;fixedSize=1;fillColor=#f5f5f5;gradientColor=#b3b3b3;strokeColor=#666666;strokeWidth=2;" parent="1" vertex="1">
          <mxGeometry x="2065" y="270" width="120" height="60" as="geometry" />
        </mxCell>
        <mxCell id="qyvfUixPplAcUaG2uUXr-44" value="Fiber" style="shape=parallelogram;perimeter=parallelogramPerimeter;whiteSpace=wrap;html=1;fixedSize=1;fillColor=#f5f5f5;gradientColor=#b3b3b3;strokeColor=#666666;strokeWidth=2;" parent="1" vertex="1">
          <mxGeometry x="2075" y="280" width="120" height="60" as="geometry" />
        </mxCell>
        <mxCell id="qyvfUixPplAcUaG2uUXr-45" value="Fiber" style="shape=parallelogram;perimeter=parallelogramPerimeter;whiteSpace=wrap;html=1;fixedSize=1;fillColor=#f5f5f5;gradientColor=#b3b3b3;strokeColor=#666666;strokeWidth=2;" parent="1" vertex="1">
          <mxGeometry x="2085" y="290" width="120" height="60" as="geometry" />
        </mxCell>
        <mxCell id="qyvfUixPplAcUaG2uUXr-46" value="Fiber" style="shape=parallelogram;perimeter=parallelogramPerimeter;whiteSpace=wrap;html=1;fixedSize=1;fillColor=#f5f5f5;gradientColor=#b3b3b3;strokeColor=#666666;strokeWidth=2;" parent="1" vertex="1">
          <mxGeometry x="2095" y="300" width="120" height="60" as="geometry" />
        </mxCell>
        <mxCell id="qyvfUixPplAcUaG2uUXr-47" value="Fiber" style="shape=parallelogram;perimeter=parallelogramPerimeter;whiteSpace=wrap;html=1;fixedSize=1;fillColor=#f5f5f5;gradientColor=#b3b3b3;strokeColor=#666666;strokeWidth=2;" parent="1" vertex="1">
          <mxGeometry x="2105" y="310" width="120" height="60" as="geometry" />
        </mxCell>
        <mxCell id="qyvfUixPplAcUaG2uUXr-48" value="Fiber" style="shape=parallelogram;perimeter=parallelogramPerimeter;whiteSpace=wrap;html=1;fixedSize=1;fillColor=#f5f5f5;gradientColor=#b3b3b3;strokeColor=#666666;strokeWidth=2;" parent="1" vertex="1">
          <mxGeometry x="2115" y="320" width="120" height="60" as="geometry" />
        </mxCell>
        <mxCell id="qyvfUixPplAcUaG2uUXr-49" value="Fiber" style="shape=parallelogram;perimeter=parallelogramPerimeter;whiteSpace=wrap;html=1;fixedSize=1;fillColor=#f5f5f5;gradientColor=#b3b3b3;strokeColor=#666666;strokeWidth=2;" parent="1" vertex="1">
          <mxGeometry x="2125" y="330" width="120" height="60" as="geometry" />
        </mxCell>
        <mxCell id="qyvfUixPplAcUaG2uUXr-50" value="Fiber" style="shape=parallelogram;perimeter=parallelogramPerimeter;whiteSpace=wrap;html=1;fixedSize=1;fillColor=#f5f5f5;gradientColor=#b3b3b3;strokeColor=#666666;strokeWidth=2;" parent="1" vertex="1">
          <mxGeometry x="2135" y="340" width="120" height="60" as="geometry" />
        </mxCell>
        <mxCell id="qyvfUixPplAcUaG2uUXr-51" value="Fiber" style="shape=parallelogram;perimeter=parallelogramPerimeter;whiteSpace=wrap;html=1;fixedSize=1;fillColor=#f5f5f5;gradientColor=#b3b3b3;strokeColor=#666666;strokeWidth=2;" parent="1" vertex="1">
          <mxGeometry x="2145" y="350" width="120" height="60" as="geometry" />
        </mxCell>
        <mxCell id="qyvfUixPplAcUaG2uUXr-52" value="&lt;font style=&quot;font-size: 20px;&quot;&gt;Fiber&lt;/font&gt;" style="shape=parallelogram;perimeter=parallelogramPerimeter;whiteSpace=wrap;html=1;fixedSize=1;fillColor=#f5f5f5;gradientColor=#b3b3b3;strokeColor=#666666;strokeWidth=2;" parent="1" vertex="1">
          <mxGeometry x="2155" y="360" width="120" height="60" as="geometry" />
        </mxCell>
        <mxCell id="qyvfUixPplAcUaG2uUXr-53" value="" style="html=1;shadow=0;dashed=0;align=center;verticalAlign=middle;shape=mxgraph.arrows2.arrow;dy=0.6;dx=40;flipH=1;notch=0;fillColor=#d5e8d4;strokeColor=#82b366;gradientColor=#97d077;" parent="1" vertex="1">
          <mxGeometry x="1620" y="320" width="100" height="45" as="geometry" />
        </mxCell>
        <mxCell id="qyvfUixPplAcUaG2uUXr-54" value="" style="html=1;shadow=0;dashed=0;align=center;verticalAlign=middle;shape=mxgraph.arrows2.arrow;dy=0.6;dx=40;flipH=1;notch=0;fillColor=#d5e8d4;strokeColor=#82b366;gradientColor=#97d077;" parent="1" vertex="1">
          <mxGeometry x="1925" y="320" width="100" height="45" as="geometry" />
        </mxCell>
        <mxCell id="qyvfUixPplAcUaG2uUXr-55" value="" style="endArrow=none;dashed=1;html=1;dashPattern=1 3;strokeWidth=2;rounded=0;fillColor=#d5e8d4;strokeColor=#3C77CF;" parent="1" edge="1">
          <mxGeometry width="50" height="50" relative="1" as="geometry">
            <mxPoint x="905" y="960" as="sourcePoint" />
            <mxPoint x="2255" y="960" as="targetPoint" />
          </mxGeometry>
        </mxCell>
        <mxCell id="qyvfUixPplAcUaG2uUXr-56" value="&lt;font style=&quot;font-size: 20px;&quot;&gt;User Logic&lt;/font&gt;" style="ellipse;shape=cloud;whiteSpace=wrap;html=1;fillColor=#dae8fc;gradientColor=#7ea6e0;strokeColor=#6c8ebf;strokeWidth=2;" parent="1" vertex="1">
          <mxGeometry x="945" y="130" width="150" height="100" as="geometry" />
        </mxCell>
        <mxCell id="qyvfUixPplAcUaG2uUXr-58" value="" style="shape=flexArrow;endArrow=classic;html=1;rounded=0;strokeColor=#36393d;entryX=0.507;entryY=1;entryDx=0;entryDy=0;entryPerimeter=0;fillColor=#f9f7ed;" parent="1" target="FdF7jEGcZH7SQStI3hOs-1" edge="1">
          <mxGeometry width="50" height="50" relative="1" as="geometry">
            <mxPoint x="1190" y="310" as="sourcePoint" />
            <mxPoint x="1190.48" y="228" as="targetPoint" />
          </mxGeometry>
        </mxCell>
        <mxCell id="qyvfUixPplAcUaG2uUXr-60" value="" style="shape=flexArrow;endArrow=classic;html=1;rounded=0;strokeColor=#36393d;entryX=0.5;entryY=0.98;entryDx=0;entryDy=0;entryPerimeter=0;exitX=0.5;exitY=0;exitDx=0;exitDy=0;fillColor=#f9f7ed;" parent="1" source="qyvfUixPplAcUaG2uUXr-22" target="FdF7jEGcZH7SQStI3hOs-2" edge="1">
          <mxGeometry width="50" height="50" relative="1" as="geometry">
            <mxPoint x="1360" y="310" as="sourcePoint" />
            <mxPoint x="1360.48" y="228" as="targetPoint" />
          </mxGeometry>
        </mxCell>
        <mxCell id="qyvfUixPplAcUaG2uUXr-63" value="" style="shape=flexArrow;endArrow=classic;html=1;rounded=0;strokeColor=#36393d;entryX=0.493;entryY=1;entryDx=0;entryDy=0;entryPerimeter=0;exitX=0.5;exitY=0;exitDx=0;exitDy=0;fillColor=#f9f7ed;" parent="1" source="qyvfUixPplAcUaG2uUXr-23" target="FdF7jEGcZH7SQStI3hOs-4" edge="1">
          <mxGeometry width="50" height="50" relative="1" as="geometry">
            <mxPoint x="1530" y="310" as="sourcePoint" />
            <mxPoint x="1530.48" y="228" as="targetPoint" />
          </mxGeometry>
        </mxCell>
        <mxCell id="FdF7jEGcZH7SQStI3hOs-1" value="&lt;font style=&quot;font-size: 20px;&quot;&gt;User Logic&lt;/font&gt;" style="ellipse;shape=cloud;whiteSpace=wrap;html=1;fillColor=#dae8fc;gradientColor=#7ea6e0;strokeColor=#6c8ebf;strokeWidth=2;" vertex="1" parent="1">
          <mxGeometry x="1115" y="130" width="150" height="100" as="geometry" />
        </mxCell>
        <mxCell id="FdF7jEGcZH7SQStI3hOs-2" value="&lt;font style=&quot;font-size: 20px;&quot;&gt;User Logic&lt;/font&gt;" style="ellipse;shape=cloud;whiteSpace=wrap;html=1;fillColor=#dae8fc;gradientColor=#7ea6e0;strokeColor=#6c8ebf;strokeWidth=2;" vertex="1" parent="1">
          <mxGeometry x="1285" y="130" width="150" height="100" as="geometry" />
        </mxCell>
        <mxCell id="FdF7jEGcZH7SQStI3hOs-4" value="&lt;font style=&quot;font-size: 20px;&quot;&gt;User Logic&lt;/font&gt;" style="ellipse;shape=cloud;whiteSpace=wrap;html=1;fillColor=#dae8fc;gradientColor=#7ea6e0;strokeColor=#6c8ebf;strokeWidth=2;" vertex="1" parent="1">
          <mxGeometry x="1455" y="130" width="150" height="100" as="geometry" />
        </mxCell>
      </root>
    </mxGraphModel>
  </diagram>
</mxfile>
